PathFileType	4	(X/Y/Z)	Patient4_TMGait_0pt5_01_left_05.trc.trc
DataRate	CameraRate	NumFrames	NumMarkers	Units	OrigDataRate	OrigDataStartFrame	OrigNumFrames
71.065989847716	71.065989847716	6	33	mm	71.065989847716	1	       141
Frame#	Time	L.ASIS			Sacral			L.Shoulder			Chest			R.Shoulder			Neck			R.ASIS			R.Thigh.Superior			R.Thigh.Lateral			R.Thigh.Inferior			R.Patella			L.Thigh.Superior			L.Thigh.Lateral			L.Thigh.Inferior			L.Patella			L.Shank.Superior			L.Shank.Lateral			L.Shank.Inferior			R.Shank.Superior			R.Shank.Lateral			R.Shank.Inferior			R.Heel			R.Midfoot.Superior			R.Midfoot.Lateral			R.Toe			L.Heel			L.Midfoot.Lateral			L.Midfoot.Superior			L.Toe			L.Elbow			L.Wrist			R.Elbow			R.Wrist			
		X1	Y1	Z1	X2	Y2	Z2	X3	Y3	Z3	X4	Y4	Z4	X5	Y5	Z5	X6	Y6	Z6	X7	Y7	Z7	X8	Y8	Z8	X9	Y9	Z9	X10	Y10	Z10	X11	Y11	Z11	X12	Y12	Z12	X13	Y13	Z13	X14	Y14	Z14	X15	Y15	Z15	X16	Y16	Z16	X17	Y17	Z17	X18	Y18	Z18	X19	Y19	Z19	X20	Y20	Z20	X21	Y21	Z21	X22	Y22	Z22	X23	Y23	Z23	X24	Y24	Z24	X25	Y25	Z25	X26	Y26	Z26	X27	Y27	Z27	X28	Y28	Z28	X29	Y29	Z29	X30	Y30	Z30	X31	Y31	Z31	X32	Y32	Z32	X33	Y33	Z33	

1	6.570000000000	725.402748701456	964.498552927572	375.319803353321	517.138906877213	998.858135204647	540.971729097796	670.616652489077	1439.719724283641	364.195847126372	779.680292937612	1368.760972317580	520.797449229386	697.114671273514	1434.548626596292	699.345787258974	674.433267772878	1496.286267900714	516.683308082404	751.666758302278	943.320478891932	648.260268048001	798.257102088599	743.305975092684	615.908048322110	720.888798883416	632.055970886173	673.677692314436	796.544315913402	582.347899650189	590.814004701039	797.528808330652	492.319713638574	593.811401240626	807.010418461958	772.856698353069	401.986576066819	754.354753990180	646.953719514083	329.632719447301	857.737793020337	582.305136440373	386.885043938745	867.695160734346	491.625479036581	381.380546884714	801.314600111076	424.797716799361	375.922251664059	658.896999705138	380.329200530817	330.817602784314	649.759107449753	250.870115397387	386.436456825898	768.229712146335	403.529919970087	600.846332681613	696.872540991003	299.857269324832	661.045591355277	735.848803882453	205.713397553850	596.421245508866	598.627105892065	43.072531313127	563.473606505090	769.070869949801	97.675493375553	604.038857625990	680.116628907915	36.217076899409	640.652409116847	888.569425124487	43.991835873572	634.492842592092	458.809799806933	184.598548788833	428.677009019689	515.546984234750	140.839340950420	346.545070928845	621.275186092893	148.743861202920	365.108907896991	699.290750774505	38.890710906649	334.334200383987	625.113331354040	1088.010251613880	244.615544800288	777.077270909052	873.837811474986	239.428454498970	711.702330067512	1091.628157717115	827.562212882924	900.393785964363	912.341601187688	840.939252791649	
2	6.584071428571	723.953277397957	965.152931702236	375.846189393385	516.542865514158	999.598325488513	542.464931964810	669.765304047894	1439.949487240711	364.692619301223	779.611700331196	1369.025420790177	520.736485779450	698.248511396309	1435.192892408310	699.647675973642	674.584742554306	1496.682657589263	517.041025860436	751.308937147630	943.529680710321	648.649665027966	796.129471943461	742.947677618124	616.012001480136	718.174317783480	632.216301272143	674.223987268245	793.111245342461	581.981407731664	591.120754476671	793.433337562010	492.156914810372	594.168454632150	806.906068525386	774.995125357859	402.388193912361	755.120554002198	648.733068626287	329.996457179587	858.929670685496	584.813479605697	387.020302811333	869.918178819025	494.734234802055	381.514755207501	805.527342638912	426.792954869295	375.680838633242	664.666051203040	377.945200987074	330.412793783258	660.019217769994	248.014107257749	385.354402960833	764.225457979767	403.495816430088	601.193065464701	692.763727437641	299.842463593412	661.271613379746	731.764736415014	205.741003720325	596.567855421005	594.528097348867	43.030765396990	563.464590148802	764.998305389159	97.674318268232	604.100797708854	676.018401843337	36.214312678537	640.646061140332	884.461556100645	43.943371738090	634.512226887890	471.765662236504	174.920132743917	427.490075527423	529.661116533726	133.741274530995	344.977030073132	634.967298686260	145.307668028973	363.466028683242	716.696983432863	38.659625022120	331.777448817495	623.407802868340	1088.016534110683	246.153813033952	770.979871098876	871.045190380898	238.982915457580	715.935544289870	1093.022453119037	828.802666785619	909.575532114371	919.651906960647	840.634991399395	
3	6.598142857143	722.233808415971	965.926358675176	376.451022456648	515.773380916434	1000.539868889986	544.208300261341	668.803449357351	1440.254089572969	365.308675002064	779.580889334942	1369.333107497309	520.674890453884	699.671345827253	1435.943497124186	700.035566899054	674.811261360932	1497.169725879493	517.506788201575	750.864213152804	943.745816149791	649.104025246034	793.535241209053	742.510715185089	616.122758011744	714.887429750953	632.408381297742	674.889406295456	788.936085699884	581.539815096507	591.493513491707	788.459008670883	491.965178714996	594.617982973685	806.602234044920	777.366165575794	402.912134252650	755.747154582629	650.729741286197	330.415568195043	859.892281790348	587.553121965624	387.333473108340	872.154157557294	498.371952689556	381.772355973768	810.395123661612	429.176593813126	375.416001926963	671.932546011444	374.737089216036	329.812819525129	673.085908108598	244.514527071672	383.997842750319	759.345738571879	403.447356778853	601.613656779201	687.744552658816	299.824717131471	661.557426949874	726.756846367460	205.758371614879	596.758295095517	589.479325209757	42.982611435058	563.473495957354	759.975758758344	97.663551608363	604.183516821817	670.966904776607	36.210394206418	640.664658854661	879.407535654160	43.881657181719	634.559554765779	488.779554997690	162.791907921630	425.855058832238	548.080418667373	125.019234917417	342.938232163622	652.560788913457	141.275493857309	361.441875926958	738.880470311125	38.997906916577	328.754506245105	621.348404664238	1088.070561526374	247.961189177648	763.388071293914	867.749559146351	238.445466800214	721.162462882892	1094.684096539348	830.230387561176	920.703485632815	928.859792575704	840.030111851296	
4	6.612214285714	720.296623443757	966.759121350362	377.093600991587	514.846857678294	1001.632741545311	546.118705183499	667.776311435980	1440.600441604865	366.017470464779	779.589409070521	1369.638308612566	520.608158994102	701.332786175966	1436.733190720871	700.487059693617	675.108070666563	1497.700463593719	518.062504823293	750.332119175262	943.932814568107	649.588765742929	790.545311312935	741.993175592645	616.224497298627	711.120803130871	632.610708944390	675.638201343535	784.134974321539	581.024050893259	591.910785891787	782.745929995166	491.740086854740	595.138083453803	806.010373750246	779.780033118009	403.541275581167	756.086201039532	652.807231114514	330.839843168232	860.402770276773	590.313864154445	387.839871363777	874.150689178216	502.365811615225	382.154646444769	815.654868266752	431.868596250344	375.133594732848	680.568475654436	370.743713722978	328.986067989785	688.733280068556	240.557493943204	382.409350464835	753.718858751235	403.374452836758	602.082846324340	681.943050527504	299.799336401987	661.884876242815	720.941768289304	205.754997929989	596.978526566534	583.589201423531	42.931112842887	563.496777136436	754.106335815633	97.637810211154	604.272875232371	665.069160492918	36.204932242189	640.702603318739	873.513386422681	43.804579322973	634.629518535452	509.751198644111	148.621377232309	423.766984654976	570.666758152052	115.043137133949	340.483100610610	673.809623344718	136.928339648111	359.131737083848	765.445578726815	40.209739461848	325.484662492204	618.986746859218	1088.165555475444	249.946132579033	754.454912411544	864.078796577618	237.824358001053	727.249329744398	1096.524672342421	831.742588183469	933.398460482014	939.781566871601	839.028005757717	
5	6.626285714286	718.209661863195	967.580402794789	377.726727996242	513.798360773714	1002.807780979385	548.099806255581	666.736441517344	1440.948958384167	366.782190293480	779.634913023328	1369.891058849547	520.530461989214	703.159972099906	1437.486473818756	700.971544004108	675.465563330919	1498.220315990227	518.680333369978	749.719669076724	944.055690991556	650.063674586001	787.262696613211	741.397678628189	616.302560869055	707.001450927976	632.799235952171	676.425343916888	778.869982875529	580.438556106397	592.347067780224	776.487241704575	491.477668557434	595.699807395100	805.046721984933	782.025636418984	404.246781297324	755.997660321533	654.815326327800	331.205461512523	860.256013950790	592.872461831556	388.531664910113	875.656932998523	506.510797871451	382.647282307500	821.000236489176	434.772476943805	374.838063113681	690.356406427115	366.083624378603	327.912860779534	706.544968477765	236.410758504919	380.658180530132	747.524513142386	403.267608370648	602.570348031818	675.539573008712	299.762421110396	662.231381491616	714.487870644145	205.721373497561	597.211225861128	577.017450444116	42.880522703915	563.529435767870	747.544772394075	97.592177097668	604.352533390658	658.484157243792	36.197878186234	640.751491102128	866.936583160906	43.709839571689	634.714931892024	534.308561849409	133.045633906088	421.260958484021	596.998200066667	104.344167934191	337.717189264188	698.203769773397	132.629945142735	356.675063012091	795.662994016291	42.598591044955	322.258898744988	616.393454503640	1088.292104602194	251.995905246879	744.424522389669	860.195991579453	237.130937194899	734.006435194793	1098.437937148505	833.216140738871	947.156239963022	952.118259854573	837.542127562372	
6	6.640357142857	716.047620733375	968.319141834734	378.302985842893	512.678117087419	1003.987081488169	550.055925196339	665.736821438244	1441.260872782332	367.560291266414	779.712024502548	1370.046011502234	520.435099947105	705.067620822329	1438.132080824267	701.454164836284	675.871239616274	1498.676625810932	519.325984196225	749.041855451095	944.087181310381	650.488308706046	783.808880077689	740.731791574958	616.345994571719	702.672431663148	632.951686929981	677.202970660563	773.325923854094	579.791213699704	592.776766574062	769.901233463051	491.175291244547	596.271453513373	803.644793570863	783.901672565042	404.990699659195	755.371849464129	656.612477744997	331.443025987291	859.298521168841	595.026775919588	389.375508459249	876.461945309998	510.599628426697	383.221363844289	826.125535233065	437.790528198816	374.531450549550	701.017746462318	360.945165007000	326.590520413697	725.966410857084	232.393027325075	378.831899507617	740.967418602646	403.119805488728	603.045489207883	668.739673824532	299.712213372956	662.573516060184	707.589640979536	205.650927757748	597.438789436609	569.949956193372	42.836078390537	563.566069754797	740.473204221077	97.523124478991	604.407123117144	651.397861614070	36.189713267409	640.801673764521	859.861551350232	43.595162323404	634.808452738018	561.849405097254	116.856609770918	418.412129998016	626.417457093197	93.549446589825	334.787322004725	725.032053139413	128.781335936348	354.237842732948	828.560477434207	46.424609356658	319.402548328565	613.647658047585	1088.441425738507	253.991423913466	733.597415178695	856.278844797288	236.377570263606	741.217077365891	1100.316377368301	834.522315589075	961.418077848303	965.500770421666	835.505750631085	
